<mxfile host="app.diagrams.net" modified="2023-09-05T16:12:11.254Z" agent="Mozilla/5.0 (Macintosh; Intel Mac OS X 10_15_7) AppleWebKit/537.36 (KHTML, like Gecko) Chrome/116.0.0.0 Safari/537.36" etag="lHdsncvohSC4-TuCP_Nr" version="21.7.2" type="device">
  <diagram name="第 1 页" id="scOiI8lrJOVfFcjtKjYC">
    <mxGraphModel dx="956" dy="510" grid="1" gridSize="10" guides="1" tooltips="1" connect="1" arrows="1" fold="1" page="1" pageScale="1" pageWidth="827" pageHeight="1169" math="0" shadow="0">
      <root>
        <mxCell id="0" />
        <mxCell id="1" parent="0" />
        <mxCell id="VMQC-VAXfnqXc4yJ9Rki-1" value="" style="shape=image;verticalLabelPosition=bottom;labelBackgroundColor=default;verticalAlign=top;aspect=fixed;imageAspect=0;image=data:image/png,iVBORw0KGgoAAAANSUhEUgAAA4oAAADoCAYAAACpWRo0AAAKqmlDQ1BJQ0MgUHJvZmlsZQAASImVlwdUU9kWhs+9N52ElhA6hN4EKQIBpIQeiiAdbIQkJKHEGBJU7MrgCIwoIiJgQ0dFFBwLIGNFFAuDgA3rgAwiyjhYsGF5F1gEZ95676231zrrfPfPPvvsfdY9d+0AQFHlSCQZsCoAmWKZNCrIl5GQmMTADwACMAQqwBXQOdwsCSsyMgygNjn/3d7dAdDYfNN2LNa///5fTY3Hz+ICAEWinMLL4maifAIdQ1yJVAYAshvVTRbLJGPcgjJNiiaIcvcYCyZ4aIxTxhkDxn1iovxQpgFAIHM4UgEAZAaqM7K5AjQO2QdlezFPJEZZgrJXZuZCHspHUbZEfVCNPBafmfJdHMHfYqYoYnI4AgVP1DJuBH9RliSDs/T/PI7/bZkZ8sk9zNFBFkqDo8ZqRs+sO31hqILFKbMiJlnEG/cfZ6E8OHaSuVl+SZPM4/iHKtZmzAqb5FRRIFsRR8aOmWR+VkD0JEsXRin2SpX6sSaZI53aV54eq9CFfLYifo4wJn6Ss0VxsyY5Kz06dMrHT6FL5VGK/PniIN+pfQMVtWdmfVeviK1YKxPGBCtq50zlzxezpmJmJShy4/H9A6Z8YhX+EpmvYi9JRqTCn58RpNCzsqMVa2XoCzm1NlJxhmmckMhJBiwQDWLRwQBxIAg4AiZwk/GXyMYK8VsoWSoVCYQyBgu9YXwGW8y1m8ZwtHd0AmDsvk68Dm+6x+8hRCdMaasMAHBHzx2yntJiigCo9wJA9/GUZmIJgMoaVDflyqXZE9r4XcICEvodoAFtYABMgCWwRTNzAR7ABwSAEBABYkAimA+4QAgygRQsBsvBGpAHCsAmsBWUg11gLzgIjoBjoAGcBhfAZXAddIDb4AHoAf3gBRgG78AoBEF4iAJRIW3IEDKDbCBHiAl5QQFQGBQFJULJkAASQ3JoObQOKoCKoXJoD1QN/QKdgi5AV6FO6B7UCw1Cr6FPMAKTYRqsD5vD02EmzIJD4Rh4HiyAF8E5cC68ES6Dq+DDcD18Ab4O34Z74BfwCAIQJYSOGCG2CBPxQyKQJCQVkSIrkXykFKlCapEmpBW5ifQgQ8hHDA5DxTAwthgPTDAmFsPFLMKsxBRiyjEHMfWYFsxNTC9mGPMVS8HqYW2w7lg2NgErwC7G5mFLsfuxJ7GXsLex/dh3OByOjrPAueKCcYm4NNwyXCFuB64Odx7XievDjeDxeG28Dd4TH4Hn4GX4PPx2/GH8OXwXvh//gaBEMCQ4EgIJSQQxYS2hlHCIcJbQRRggjBJViWZEd2IEkUdcSiwi7iM2EW8Q+4mjJDWSBcmTFENKI60hlZFqSZdID0lvlJSUjJXclGYriZRWK5UpHVW6otSr9JGsTrYm+5HnkuXkjeQD5PPke+Q3FArFnOJDSaLIKBsp1ZSLlMeUD8pUZTtltjJPeZVyhXK9cpfySxWiipkKS2W+So5KqcpxlRsqQ6pEVXNVP1WO6krVCtVTqndVR9Soag5qEWqZaoVqh9Suqj1Tx6ubqweo89Rz1feqX1TvoyJUE6oflUtdR91HvUTtp+FoFjQ2LY1WQDtCa6cNa6hrzNCI01iiUaFxRqOHjtDN6Wx6Br2Ifox+h/5JU1+TpcnX3KBZq9ml+V5LV8tHi6+Vr1WndVvrkzZDO0A7XXuzdoP2Ix2MjrXObJ3FOjt1LukM6dJ0PXS5uvm6x3Tv68F61npResv09uq16Y3oG+gH6Uv0t+tf1B8yoBv4GKQZlBicNRg0pBp6GYoMSwzPGT5naDBYjAxGGaOFMWykZxRsJDfaY9RuNGpsYRxrvNa4zviRCcmEaZJqUmLSbDJsamgabrrctMb0vhnRjGkmNNtm1mr23tzCPN58vXmD+TMLLQu2RY5FjcVDS4qlt+UiyyrLW1Y4K6ZVutUOqw5r2NrZWmhdYX3DBrZxsRHZ7LDpnIad5jZNPK1q2l1bsi3LNtu2xrbXjm4XZrfWrsHu5XTT6UnTN09vnf7V3tk+w36f/QMHdYcQh7UOTQ6vHa0duY4VjrecKE6BTqucGp1ezbCZwZ+xc0a3M9U53Hm9c7PzFxdXF6lLrcugq6lrsmul610mjRnJLGReccO6+bqtcjvt9tHdxV3mfsz9Lw9bj3SPQx7PZlrM5M/cN7PP09iT47nHs8eL4ZXstdurx9vIm+Nd5f3Ex8SH57PfZ4BlxUpjHWa99LX3lfqe9H3v5+63wu+8P+If5J/v3x6gHhAbUB7wONA4UBBYEzgc5By0LOh8MDY4NHhz8F22PpvLrmYPh7iGrAhpCSWHRoeWhz4Jsw6ThjWFw+Eh4VvCH84ymyWe1RABItgRWyIeRVpELor8dTZuduTsitlPoxyilke1RlOjF0Qfin4X4xtTFPMg1jJWHtscpxI3N6467n28f3xxfE/C9IQVCdcTdRJFiY1J+KS4pP1JI3MC5myd0z/XeW7e3DvzLOYtmXd1vs78jPlnFqgs4Cw4noxNjk8+lPyZE8Gp4oyksFMqU4a5ftxt3Bc8H14Jb5DvyS/mD6R6phanPhN4CrYIBoXewlLhkMhPVC56lRactivtfXpE+oH0bxnxGXWZhMzkzFNidXG6uGWhwcIlCzslNpI8Sc8i90VbFw1LQ6X7s6CseVmNMhraGLXJLeU/yHuzvbIrsj8sjlt8fInaEvGStqXWSzcsHcgJzPl5GWYZd1nzcqPla5b3rmCt2LMSWpmysnmVyarcVf2rg1YfXENak77mt7X2a4vXvl0Xv64pVz93dW7fD0E/1OQp50nz7q73WL/rR8yPoh/bNzht2L7haz4v/1qBfUFpwedCbuG1nxx+Kvvp28bUje1FLkU7N+E2iTfd2ey9+WCxWnFOcd+W8C31JYyS/JK3WxdsvVo6o3TXNtI2+baesrCyxu2m2zdt/1wuLL9d4VtRV6lXuaHy/Q7ejq6dPjtrd+nvKtj1abdod/eeoD31VeZVpXtxe7P3Pt0Xt6/1Z+bP1ft19hfs/3JAfKDnYNTBlmrX6upDeoeKauAaec3g4bmHO474H2msta3dU0evKzgKjsqPPv8l+Zc7x0KPNR9nHq89YXai8iT1ZH49VL+0frhB2NDTmNjYeSrkVHOTR9PJX+1+PXDa6HTFGY0zRWdJZ3PPfjuXc27kvOT80AXBhb7mBc0PLiZcvNUyu6X9UuilK5cDL19sZbWeu+J55fRV96unrjGvNVx3uV7f5tx28jfn3062u7TX33C90djh1tHUObPzbJd314Wb/jcv32Lfun571u3OO7F3uu/OvdvTzet+di/j3qv72fdHH6x+iH2Y/0j1UeljvcdVv1v9Xtfj0nOm17+37Un0kwd93L4Xf2T98bk/9ynlaemA4UD1M8dnpwcDBzuez3ne/0LyYnQo70+1PytfWr488ZfPX23DCcP9r6Svvr0ufKP95sDbGW+bRyJHHr/LfDf6Pv+D9oeDH5kfWz/FfxoYXfwZ/7nsi9WXpq+hXx9+y/z2TcKRcsZbAQQdcGoqAK8PAEBJBIDaAQBpzkQ/PW7QxH+AcQL/iSd67nFzAeDIagAizgPg7wPATlQyQ59V0BGJPsf4ANjJSTEme9/xPn3McMfRVr0JAFPh7yQz8E+b6OG/y/ufM1BE/dv8L37kAcKBdroGAAAAimVYSWZNTQAqAAAACAAEARoABQAAAAEAAAA+ARsABQAAAAEAAABGASgAAwAAAAEAAgAAh2kABAAAAAEAAABOAAAAAAAAAJAAAAABAAAAkAAAAAEAA5KGAAcAAAASAAAAeKACAAQAAAABAAADiqADAAQAAAABAAAA6AAAAABBU0NJSQAAAFNjcmVlbnNob3QpxWftAAAACXBIWXMAABYlAAAWJQFJUiTwAAAB1mlUWHRYTUw6Y29tLmFkb2JlLnhtcAAAAAAAPHg6eG1wbWV0YSB4bWxuczp4PSJhZG9iZTpuczptZXRhLyIgeDp4bXB0az0iWE1QIENvcmUgNi4wLjAiPgogICA8cmRmOlJERiB4bWxuczpyZGY9Imh0dHA6Ly93d3cudzMub3JnLzE5OTkvMDIvMjItcmRmLXN5bnRheC1ucyMiPgogICAgICA8cmRmOkRlc2NyaXB0aW9uIHJkZjphYm91dD0iIgogICAgICAgICAgICB4bWxuczpleGlmPSJodHRwOi8vbnMuYWRvYmUuY29tL2V4aWYvMS4wLyI+CiAgICAgICAgIDxleGlmOlBpeGVsWURpbWVuc2lvbj4yMzI8L2V4aWY6UGl4ZWxZRGltZW5zaW9uPgogICAgICAgICA8ZXhpZjpQaXhlbFhEaW1lbnNpb24+OTA2PC9leGlmOlBpeGVsWERpbWVuc2lvbj4KICAgICAgICAgPGV4aWY6VXNlckNvbW1lbnQ+U2NyZWVuc2hvdDwvZXhpZjpVc2VyQ29tbWVudD4KICAgICAgPC9yZGY6RGVzY3JpcHRpb24+CiAgIDwvcmRmOlJERj4KPC94OnhtcG1ldGE+Cq+jo1EAAAAcaURPVAAAAAIAAAAAAAAAdAAAACgAAAB0AAAAdAAAKgTlqoJOAAAp0ElEQVR4AeydebAcxX3He/Z4DySQQNyXxG0u25iY2AFhB9vlxOXYseMKpEKSSlWSSqVSqUrZKcdxVf5NxVSJ3LePHHYS2/GFc/tKosMxBgIGIRmMhYQQEgiBbu3bnZn0r4dGs/N2Z+fo/nXP7Heq3puZnpnu3+/TPd393Z7pCaIoiuUiOp2OwAICIAACIAACIAACIAACIAACIAACAalEKRYhFFEWQAAEQAAEQAAEQAAEQAAEQAAEFAElFGlEMQgCIAEBEAABEAABEAABEAABEAABEAABAaGIQgACIAACIAACIAACIAACIAACIDBGIAjDMMb7iWNMsAMCIAACIAACIAACIAACIAACc01AjSjONQE4DwIgAAIgAAIgAAIgAAIgAAIgMEYAj56O4cAOCIAACIAACIAACIAACIAACIAAhCLKAAiAAAiAAAiAAAiAAAiAAAiAwBgBPHo6hgM7IAACIAACIAACIAACIAACIAACwWg0irvdLkiAAAiAAAiAAAiAAAiAAAiAAAiAgCIQRFEU4xuKKA0gAAIgAAIgAAIgAAIgAAIgAAKaAN5R1CSwBgEQAAEQAAEQAAEQAAEQAAEQUAQwooiCAAIgAAIgAAIgAAIgAAIgAAIgMEYAQnEMB3ZAAARAAARAAARAAARAAARAAAQgFFEGQAAEQAAEQAAEQAAEQAAEQAAExghAKI7hwA4IgAAIgAAIgAAIgAAIgAAIgACEIsoACIAACIAACIAACIAACIAACIDAGAHMejqGAzsgAAIgAAIgAAIgAAIgAAIgAAIQiigDIAACIAACIAACIAACIAACIAACYwSUUBwLwQ4IgAAIgAAIgAAIgAAItJDAYOPvKq8GG+8W3XW3ipV3fbmFXsIlEDBDIAjDMA6CQNAfFhAAARAAARAAARAAARBoA4HRzk0i3LVJuULCMLtAKGaJYB8ExglgMptxHtgDARAAARAAARAAARBoIIFZwjDrEoRilgj2QWCcAB49HeeBPRAAARAAARAAARAAgQYQ0MJwtGuzCHduLm0xhGJpZLhgzggooRhFkeh0OnPmOtwFARAAARAAARAAARBoCgH9fmFVYZj1s4lCkcQxLfqRWtrurl1PK9Fbl6zVDv6BgAECmPXUAEREAQIgAAIgAAIgAAIgYJaAaWGYta4pQlFzmPSe5SSfFtf/JkRjFgz2KxHAO4qVsOEiEAABEAABEAABEAABGwSOfupdlR4lLWuL70KRBGIRcTjJb/INgnESGYSVIYB3FMvQwrkgAAIgAAIgAAIgAAJWCUAoCikQq4vEdOYs3vZBsXjbh9JB2AaBwgTU5zHwfmJhXjgRBEAABEAABEAABEDAIoF5F4qm/YdYtFhYWx41Hj1teQbDPRAAARAAARAAARBoEgHTQmma7z4+emrLd4jFaaUA4XkE8OhpHh0cAwEQAAEQAAEQAAEQYCVgSyxlnfBNKNr2G2IxWwKwP4uAGlGM4xifx5hFCsdBAARAAARAAARAAASsE7AtmLQDPglFU+8kat+mrSEWp5FB+CQCGFGcRAVhIAACIAACIAACIAACTgjMm1CkbyMe+9S72Viv+vABtrSQULMJYESx2fkH60EABEAABEAABECgVQTmTShy+asLCUYVNQmsZxFQI4pRFOHR01mkcBwEQAAEQAAEQAAEQMA6AS7h5Mujp4d+Z411ptkEMKqYJYL9SQSUUKR3FIMgmHQcYSAAAiAAAiAAAiAAAiDARmCehCL3Y6c6EyEUNQms8whAKObRwTEQAAEQAAEQAAEQAAFWAvMkFLl8zWYgHj/NEsH+JAJBGIZxp9OZdAxhBgnEw2Ni+NDfiIWbf8VgrIgKBEAABEAABEAABNpFgEs8+fDoKZev2RICoZglgv1JBDDr6SQqhsOW7vtzceKrHxb9a98juhe+TvSvv0MEp51nOBVEBwIgAAIgAAIgAALNJ8AlnuZZKPrge/NLavs9wKOnFvN4+OhnxWDLPSLa/12VCgnF+Njzyfb1Pyn6N9whRO8UixYgahAAARAAARAAARBoFoF5EoouJrKh0gCh2Kx7wpW1EIoWyI++/3UlEMNdW8ZiTwtFOhAsrlJisXfNj4+dhx0QAAEQAAEQAAEQmFcCEIr2cx5C0T7jNqSAR08N5mK49ztiSY4gDrffOzHWrFDUJ3VWrxU9ObrYu/TNOghrEAABEAABEAABEJhLAhCK9rMdQtE+4zakEIxGo7jb7bbBF2c+RIeeUQJx6cFP5NowTSjqi7rnvVoJxu75N+ogrEEABEAABEAABEBgrgjMk1Dk8jVbgCAUs0SwP4lAEEVRjG8oTkJTIGx0Qj1iOth8jxBxNPOCWUJRR9Bdt15NeNM58zIdhDUIgAAIgAAIgAAIzAUBLvHkg1gabPxdMdh4N3u+rrjrXtGT/U0sIJBHAO8o5tHJObZ0/18KEojx0edyzho/VFQo6qt6V79TvcMYnLpGB2ENAiAAAiAAAiAAAq0mAKFoP3shFO0zbkMKGFEsmYvDrZ9LZjJ9flvJK4X6PIae9bTwxZ2eEov9G+6Us9/ge5eFueFEEAABEAABEACBRhKYJ6FIGcQ986kPI6mNLJhzaDSEYsFMH+34L/Ue4mjnpoJXLD+t7IhiOoZgxdnJDKlXvSMdjG0QAAEQAAEQAAEQaBWBeROK3I+fYjSxVbeLVWcgFGfgDfc9msxkuu2LM86cfbiOUNSxd9Zcod5f7K69RQdhDQIgAAIgAAIgAAKtITBvQpEyjmtUEaOJrblNWByBUJyCOT78rHrEdOmBj005o3ywCaGoU+1ecJMaYeyce70OwhoEQAAEQAAEQAAEGk9gHoUi16giRhMbf3uwOgChmMUdDqVA3KAmqhHRKHu01r5JoagN6V12u/qkRmfVxToIaxAAARAAARAAARBoLIF5FIqUWbbF4uJtHxSLt32oseUChvMTwKynKeZLD3w0mcn0yN5UqLlNG0JRW9e79j1yhPFOESycpoOwBgEQAAEQAAEQAIHGEZhXoUgZZct3iMTG3QZeGAyhKLNhuO0LYkl+6iJ8bqvVTLEpFMnwoL9CjS72r3ufVT8QOQiAAAiAAAiAAAjYImBLLGXt9fV9PdP+QyRmcx77RQkooVj05LadN9q5UQrEDWL01P+wuGZbKGongtMvUBPe9K54mw7CGgRAAARAAARAAAQaQcC0UJrmtK9Ckew19RgqROK03Ed4EQJBGIZxEASC/uZliZ57TE1UM3zs86wucwlF7VTn7GvUhDfdi27WQViDAAiAAAiAAAiAgNcEIBST7KFPsg02fUSEOzeXzi8IxNLIcMEEAnM1mU18ZF8yk+n9fzUBhf0gbqGoPepe/IZkhtSzrtZBWIMACIAACIAACICAlwQgFMezhQRjuGuTGO3anCsaaYS0t/ZWTFgzjg97NQjMx6OnUagE4kC+hyjCQQ1c9S51JRS11b0r355MeLPyXB2ENQiAAAiAAAiAAAh4RQBCMT87SDhml9669dkg7INAbQJKKEZRJDqdTu3IfIxg6cGPq4lqosN7nJvnWihqAP0b7lDvMIreog7CGgRAAARAAARAAAS8IACh6EU2wAgQEK2d9XS4/UvJTKb7HvEmm30RigQkOGV1MuHNNe/2hg8MAQEQAAEQAAEQAAEIRZQBEPCDQOveUQzl89v0iOloxzf8IJyywiehqM3qrF6rPqnRu/TNOghrEAABEAABEAABEHBGAELRGXokDAJjBFrzjmK0f7sSiMOt/zTmoE87PgpFzad73quVYOyef6MOwhoEQAAEQAAEQAAE2AlAKLIjR4IgMJGA+jxGk99PjI/ulxPVbBBL3/6LiQ76FOizUNScuvJl6P4Nd4rOGZfqIKxBAAQcEaDOEmawcwQfyYIACDgjAKHoDD0SBoExAs199DSOk09dyMdM49HxMad83WmCUNTself/mPqkRnDqmToIaxAAAUYC6Y8t43tYjOCRFAiAgHMCEIrOswAGgIAi0MhHT5f+76+TmUwP7W5UNjZJKCqwnb4SizRLqgjaOStuowoQjJ0bAmmRqJ2GWNQksAYBEGg7AQjFtucw/GsKATWiGMvRuSY8fjr67j/L9xA3iHDvw03hO2Zn44Tiy9YHK85WgrF31TvG/MEOCICAeQKTRKJOBWJRk8AaBECgzQQgFNucu/CtSQQaMaIYPv3NZCbT73+tSWyX2dpUoagd6ay5QgnG7iW36CCsQQAEDBKgjygf+1T+J2u6624VK+/6ssFUERUIgAAI+EUAQtGv/IA180vA6xHF6IXHk5lMH/1MK3Ko6UJRZ0L3wpvkNxjlhDfnXqeDsAYBEKhJoIhI1ElALGoSWIMACLSRAIRiG3MVPjWRgBpRjKLIq0dP4+MHlEBcuu9Pm8h0qs1tEYrawd5lb1Gf1OisukgHYQ0C3hMgQaaXcNfJbQobye+w6oVmG00v3bXrX9ntydmBTS9lO0YkFhfX/6awYYtp33yOL688kN22891HNmkmafuy90v6GG3PI6ssg7btp8vCtPxP5zv5b6JOKlsfVuWOH92qkmvvdekyT15OK/d0LF32TZR7itO3RQlFekcxCAIvbBts+T2xtEXOZLp01At7TBhB7/Yt3vp+0b3wB8RoxzfESI6QRg2biCePQ//a9yrBGCyclncajoEAOwGq8KmSJwEY7jwpAk0YQh0MWkhQUmNRp5Go0ylacde9tdI2wcL3OKgcDDZ95BUz65YFyvv0DwmLt33olbibsqE7Q/r+ILvrcpnme5ZX3ftlWjoIr05A15UUg6n6UteR9IMWLWXqyDp1okqs4D+yEY/yF4TVstN0mdc/EJus/9J1XtPrO2+E4tJDf5vMZHpwV2uKYveim5VA7F35I8t8Gm37ohhKwRgvHV52rIkBQX+FEov9697XRPNhc0sI6Iqf3BlsvJvdK2ocynaK8iavKeoAp1gkezmWuo0rlQUShyYb/zy/dcegrt15aVQ9Rixo4eRRxFbNjM5totgu4qOv5+i60pQoLOpn0TqyqUKRq34synvSeT7WUZPsNBmWrgMpXq52Ie1DU+u7IAzD2OWMp6PH/1U9Zho++2CaZ6O3O2dergRi/zU/netHPDwuRxc/LYaPfS73vCYdDE6/IJkh9fK3Ncls2NpwAibElmkE1CjQkvd4qEm7OWZEpcZ21mQ7pjhWEb9kny9iiCM/8lhrFnSOi05Rnm3TjumOFETjNEL1w03WOXWtyasjmyoUD/3OmrpYrF/vum6y7mAqAV0P+lgHUj7Q4nt952zW03D3t5KZTJ/8SipLm70ZLK6SAvEDYuGNv1bKkfjws2K49TNi9ORXS13n88mdc65RE950L3q9z2bCtgYT0L/cuhg5LIuNOkRZwWijw2a7A+CrUPS9M8DVEfCZQ5V7hh7v5WJX1r4mnU91DffIYVk+2ToSQrEsweLn224nilti58wm1oM+i0b2R0+jA99LZjJ95B/tlBBHsZI4XLzl/SI4ZXVlC6L929XjqOEz364ch28Xdi9+oxph7Jx1lW+mwZ6GEmiSQMwi1p0hCrc1MmezE+CbUGxCh8BmflA5agIDsrPOYpthHdt8vtbGj1Ec/lJ+cwlbqpNNvqOIEUWOEjI5jbbUhb7Vd2xCMT7xUjKT6bf+eHIONzSUHi+liWrocVNTC4220vuL9HmQtiz0nmb/hjtEsPLctrgEP5gJNFkgMqOSozAftDIS44tQbFKHYNWHD1jJ/iYxMAXAVrk2ZZ8v8TRVILrgB6HogrrZNNtaF/pS37E8ejr45h8kM5kO2jFxCxXx3pVvV4+Z0oQ1tpbR9/5TPZIaH9lnKwn2eEks0p/oLrKnjQSbSwAdn/J5Z6OR8UEoNqks2MgDKglcj+WVL3U8V9jiymO9vVSadG/Yo1AuZgjFcrx8OrutAjHL2HV9F4xGo7jb7WbtMrI/fPiTYiA/dRG9+JSR+HyIhD5xQSOI9MkLrmW49bNyhPHT8hmjAVeSVtOhx3NJLPZe9W6r6SDy5hNAx6deHpruBLkWik0rDzZHE209ulyvxPFe7boDxettfmpNuzfyveE7arqOxKOnPHk3bz+WUV3narbaIIqi2PQ3FEdP/Hsyk+me+3lKDEMqnTMuVQKx/9qfYUhteRLx4KB6HHW0/d7lBxsa0jljnZzw5g7RvfRNDfUAZtskgI6PGbomO0IuhWLTOgY2RQxnPpgphfZiscnZntXmYkY9WY+lyfqRLIFQrJcfs66e97rPRX1n9B1FmoRlsPkeMfref8zK68Ycp4/IL8gRxMUf+nUvbI7kdyZH8v3F0VP/7YU9Jozonvca9Q3G7vmvNREd4mgBAXR+zGaiqc4QZyOd/jxG00Qi5Z6t0URdMprIRNtuem2qfJu2y3Z8KAP1CZsuOxCK9fNkWgzoFyRkTJfZabx1uJERxejFHVIgbhDD7/y9jrcV64U3/Goyk+mpZ3rnT7jvESUYw70PeWdbVYO6625LZkiVo7dY5pMAGgLz+W6yUeEWikTDl+8ilskZjl99IRLGc4TKefYTNONntGeP8z5sD7XJnpisHykFCMXJnOuEUnlvYjtQx+ci13K0M2RHLaEYDw4lM5n+7x8W8akx5/Rf/VNKIHbOutJ7m0N5A9E3GEmst2XpverHkhlST/FPoLeFsY9+QCSazxXTDQlnB5Vsb8I3Miflmu3RREqTMy8m+ehrWHok2lcb69iFerIOveXXQiguZ+JTCOq5/Nww3cZPSq2yUFz63z9SE9XEJw5OireRYb0r3qbeQ6Rv/zVtGT3+L+odxvi4nanY2Xl0++r9xf4Nd8qfMwL25JEgLwF0fszzttGAoNGenU82uE9LtQmjF9NstxnOIdRt2j8tbtST08hUD4dQrM7O9pUo78UI225zSgvF4Xf+QQrEDSI68P1iHjTgrO4Fr0tmMr36nQ2wNsfEaKjEIn2DUcRRzonNORSsOCeZIfWqH22O0bC0FAE0BqVwzTzZZqMBoTgTv/V3E9MW4PHTNI2T26Y7/ydjdreFetIOe9NlpQk/3thsI0zlEsp7OZI287SwUKRv+tGnLsLd95Wz3uOzO6vXqolqFm78OY+tLG9afGx/MkPqE/9W/mJPr+isuVIJxu4lP+SphTCrCgEIjyrUpl9js7GgVJFf09nTEdv8s6kjP7JETu6bFgAnY+bfQqfZHnPT5QRCsX5eobxXY2ir/Zk562m45wElEEePt0d0BP0VyUymt7y/Wm405KrowJNKMIZPb2mIxbPNpO9Y0jcYO+dcN/tknOE1AXRyzWYPx7tZyLP8PON+5BH5kZ8ftjpO+amaPYpOs1me2dggFLNE3O6jvNfjb6POmyoUo5d2qolqhg//XT2rPbt64Qd/JZnJdMVZnllmz5zw2QeVYIye22ovEeaYe5e/Rb3DGKy6iDllJGeCADq4JigmcdhoGKZZh3ybRoZ/NFFbgsdPNYnJa27xPtmKaqHoNFfjVuYqCMUytOyei/Juhq/pPoESimnT4qUjYkl+C3Hwzd9PBzd+m0ahFuUIYufsqxvvS1UHRju+oT6pER3aXTUK767rX/te+Q3GO0WwsNI722DQZAIQG5O5VAk13SDMsgF5N52QK0ECoTg9T+iIaSGQn5q5o+g0m2OZF5Pp8oFHT/NoTz+GtmU6mypHTD5hFIRhGAdyVkn6W/rWnyQzmR5/sYpdXl5DI08kELtrb/HSPhdGDbd9QQlG+lGgDUvQXynF4h2if91PtMGd1vuAjm39LKbOjYtvxqExn5x33II9bQXyJE1j8rbJTtPkFMyGQiSa5ZkXG4RiHh2+Y00Q2Hw06qdkslyryWzCJ78iTnztt0X0whP1rfMkhu75r1XvIfZf9S5PLPLLjHh4TInF4WOf88uwGtYEp1+YzJB6+VtrxIJLbRJAp9YcXRcjWMi/yfnnIi/SlqCTlaaxfNtkp2l57GZDcI+Z5TkrNtNlown3ossftiblB348nkSlfpipsh0c/cRb4kDEYrjnofpWeRBDR76ztnDrB8TC637eA2vGTYj2P+7do6/x4WfFcOtnxOjJr44b2+A9+pbkyl/c3GAP2ms6GgRzeeuisUcndnn+uciHrBW4r7JElu83ZVSxCUJjOd3mhpjqTGsCTcg/H+oszQuj55qEnbWJvA6OfOx2+cW9WMR7H7ZjJVesvVPUtxDpMVMRdLhSLZROKNnSe5+i0xX9G39W9C67vdB1nCdF+7cnM6Q+823OZI2mFQ8Oi+jgbhGfeEms+q39RuNGZPUJ+NggUCeht/ZW5Vx37Xq17q1brz4DkfZ4sOkjajfc6dcPENwjWW0QipTn6aVunnLnQdp2vW3z3sry0mnSui67dFy2t00LAhv2QvDboJofp+lyAaGYzzt91Ga9lU6nyrau97L9Ax1XuGuT3hSjXUm/wNf6sO6PZEooxtLdaG9zRxQXbv7lZCbTlee8knE+bNCkMSQQl/7vr5U5/WvfI+Jjz4vOuderGTu7F97kg5ljNoS7v5XMkPrC42PhPu/EoxMilgIxOrIvMVP+UACh6F+O+dKA0i9stCze9qHSkEgo0ULC0YdGwcSvhWUgNFEoUoNP73PSQj8C5C3UcaGFGv4i+cvNf5rtVfMl3RlK/1AyLZ1Z4ZofnTfYePes09mP1+0w2TTY505z2m8qM7rzrMOzZUfXk3ScOtQ+d6TJn5V3fVm7UnvtSzuX54gv9ZZvrHRbMaudyGNL93HR9iMvHpPH6pbx4LAcUewGQgyfbZ5Q7F//PikQPyC/qXeNSaa144pHx5OZY7fIUcSYZHiyaKGo97uX3JJ8E3DNFTrIm/Xoe/8pBeOnRXz0OW9sWmZIFAoS4zSKOLZAKI7h8GHHh06Q6cbRB58obzlHtKoKEu4yaKLBJ5tn5TEn+1kMi3S6NBeKq05naJYt6eM+dZzqdpjSfpnc9v2+orqTlio/rqU5aQHpyw9tZJvpMkHlvcrCKS5Mt4VV/J1Vt1aJs8o1uk60UR/64iNxqfMjWXDk47fH9KBmk4Ri77IfFgvyEVMbGVuloKWvWfr2XyQzxx59Ph2strNCUZ/Qu+odSjAGK87WQd6sh49+Rr3DKEYDb2wiQ6JDe6RAfFpujJbbBaG4nInDENedIGoI6Bfwup2caQhdNwacjb7rvJyWBzrcVqNPftPISHqUjJO79i9vPemxRV32acTHdXs5iWGePzaOEQ+To0embJyUd6birhoPlW+b5YbKgw+C0ZcywVm3uq67XLeZ+p7g4uCDv3XKeXBIjiiSUAwb8Ohp97xXK4HYv/bHdT57sx5u/ScxkI+Z0rt+05ZpQlGdL8UNfeuR/kSnPy0KJ+HxiYPJhDfb73WSfjrRWApwEojx8Hg6eHwbQnGch+M9l52geWkIuEa2ODszZYstR15Tg69/+ediXpRDOm+oU+Di8ylFbXXZcarzy3pR/8qc55LFJDs57qN0uq4FY50OdNqPutvp+7duXLOu587jrD2uy7yL+tF1Oac8qFr3qUdPO/LR05HHj54Gp1+g3kFc+IFfyJY35/v0EXsSiOHLL7PmGZQrFF++MDj1TCkW7xS9q9+ZF5WTY9HBXeqTGqOn/ps9/fj4S3IUUQrEE4dmpw2hOJsR4xmuhCJ3Y+iy8ePylbMzU6aIVm0Ay6SRPpc4uB6hS9tD22QTjXraHAXKplln39X9wl1WZjEq8sjwrDhMHOeqQ6bZ6qojDaE4LUfshLu677U3rsu5S/+rlvXgmPw8RiTfowt9FIrdhZMzmXZ6Op+9WIf7HlHvIQ63f6mwPUWEoo6sc+ZlyYQ3MyZf0Odzrsn3kXwklWMUOl46mowgHnuhuIsQisVZWT7TlbBw1Ri4agS4/HWVn3nF1LeOf56tODZOwEV5qtpZGrfczJ6r+iJtPVfdkU4zb5ubiS/lgfNecJnnLn8Ycel3usxzl/F02lUYqEdPacKVeJ9fn8dYeP0vJTOZnnZe2kfn29HhPclMpg9+vLQtZYSijrx7/o2iJx9HpcdufVtC+Qs2fYMxenGHedPCJSUQo8N7y8cNoViemaUrXIwmum74XTUCHI9CcnZmihRJiMQilPw+x0WZ8qHcuPA7WxKqdBqzcdjY52Tjur3Q/Dh9dpXvrtpGYuzKZ52/2bVLFmX7CsFROZkNzcvpy4hi/7r3qvcQu/ITEl4tUrgMNm9QE9UIOdtmlaWKUNTp9C59sxKMndVrdZA369Hj/6w+qREff7G+TbI00juINJtpesbYUhFDKJbCZfNkF0KxbCVow38XfnM0hJydmVn54kNnf5aNOF6MAHe58qHsuKgj0rnBUV+k0yu7zcUHQrFszlQ/39Vooq9l3ZVYLFv/qXcUYw9GFHuXvimZyVSufVuW7v+rZCZT/Z2+igbWEYo6yd41705mSF1crYP8WEdDJRZpllQRR5Vsig4/K0WiFIhSlNdaIBRr4TN1MXfnj+wuWwGa8jUbj4sGgKMxdJGnWba070s+T7INYdUIcN4zrsWB6/uIo66oVgpOXgWheJKF6S0X+c95f6d5ufA1nf6sba5ynrajbP2n3lEchZGzR09p5JA+dUEjib4tw8c+rwRi9NxjRkwzIRSVIb3FZIbU6+UMqZ4t8bH9SjCOnvi3wpbF8v1DNZOpfB/RyAKhaARj3Ui4O0NlK7+6/s26nrth5PCfO08nMfa94Z9kM8KKEeAaceC4V/I8dtE51PY05f7hYuS6LOh84axbXZQB7vZQc/XhCSNty6Q1Z76n0y/zY6t89DSZzCZi/jxGIN89XJQCkd5F9G0ZPfU/YmnLBjF6aqNR04wJxZetClaepwRj78q3G7XTRGTRgSeVYAyf3jI1OprBVAnEEy9NPafSAQjFSthMX8TV0Gu7y1R8+hqbaxcNo+1G0VWjpvPJRQdHp421fQKc94zteyWPFpcgztrQpPuHq/2AUMyWEjv7Lsp8U8o7V1lP52yZch8ckd9RpHcU2YSinL2UBOLire8XQs5q6tMSPrc1mcl02xesmGVaKGojO2ddrQRj9+I36CBv1uGeB5MJbyRbvdA3EJVAlN9EtLJAKFrBWjZSzoahTKVX1o8653N2fMlO22LZtVB02bmvUw5wbXECXPWG7Xtlmseu7iFf68hpnLg6z75w4SwX3AKKux2kMsXt47RyXDScq97T9pQp92rW0468kuNTB/QdRBKJ9F1En5b4yF71LcSlBz5q1SxbQlEb3b3oZiUYO2dfo4O8WY92fF2MHv6kGO2+T05Us8euXRCKdvkWjJ2z4itT6RU038hp3A2k7caRszOTzQDbvmXTw74bAlwCwVV54vIvm3uuhHHWjqL7XJx8aTs461buss/ZF9Dlq2k/KnL3FYhT0TohOCYfPZUfxxAji99RDFacLbpnXyX6N/2CfBfxJ3Q+ul9HIyUQB/IxUxEOrdtjWyhqB3pXvE19g9EnQT745u/L0doNgr6LaH2BULSOeFYCnI0e2VK0wptlt43jnI2k7Q4Ad76m86NpDX/admwXJ8BVxlwIBC7fsrRt1wvZ9EzsQyiaoDg5Ds7y4EIAcfo3mXC1UK4yr60rWgdaffQ0OGW16Ky+WASnnKHtkqOJFybv1V3+1lfCXGwsPfCxZCZTOdMm18IlFLU//evepz6pEfRX6CD29VCOIg423yOil57iSxtCkY/1lJS4O0Q+iwhOoVi04p+SbTODufNVG9TUhl/bj3VxAlxlzPa9Mslj7o4g2eDCz0m+lw3jYuULH65yT/nAWZ+6EIo+9wfy7gOuMq9tKFr21YhiSN+uMziZDQkTJRBXnqPtWbbunHNt8l7dha9fdsxmwHDbF+VENfeIcN+jNpOZGDe3UCQjgoXTE2F+7Xsm2mQrcPTEvyshHj5zv60kpscLoTidDdMRzkavaGXH5PqyZDgbStssOPM1DbKpDX/aB2wXJ8D14wp3ueLuCBJxbh+L53L+mVysbNeZ+V6ePMpZt3IKRa57WZPk9E2naWrNWQa0zUXqBzWiSBcYeUex25cC8RLRKfEOYveSN6rHJDtnXaXttrKmDCCBONrxX1biLxKpC6Go7eqsuliNLvYuu10HWVmHe+5XI4gkFJ0tEIrO0OuEOSs8Xxp67Xt2DaGYJVJuv8kNfzlPcbYmwCUSinSStE1115x1orbV97pR2zlpzVUGfGHEWT646lROn3QZ8vk1FG1j3pqr3GsbivAKDn709rgvZ7MZ1nxHUQlE+ZipkJ30Kkvvyh9VI19BzihklXij57epka3h1s9VudzoNS6FonakI79b2b/hDtG94CYdZGQdvbRTCsQNgh41db5AKDrPgjaJo7owOVmQrTY7vy4afpv+1M1bXG+HAFdnqUgnyZSH3PUA2c3pnylOOh6uMgChqImbX7so801vL7jKvc7tIuU/OCw/j9EJROXJbDqnny9otErIj8DXXwIlYkjI1P10Rnz0OTWytXT/X9Y3y1AMPghF7Up37S3JSO6aK3RQpTVNTkMjtYMtv1fpeisXQShawVomUs7KjuvX0TL+p8/lbixtNpTcQrFII5ZmjW0+AlQW0ku46+T+aNfm9KGx7d7aW8f2u2vXi9669WNhXPUHp5Di8kmDbPq9w8XLF06cdStXm8mVh7rMc/ml07Ox5iwHZH+R8h8clbOeRhXeUQxWnJW8h7hwmnFWNPkNicXeq95VPu44UgJxIMWLGJ0of73FK3wSitrN3lXvSEZy5cy0ZZel+/5MjSLGxw+UvdTu+RCKdvkWiJ2zgfC9ceCu+NskFH3P2wK3QqNP0WKQRKAWf+HO6SKwjrPUYUmLyMHGu+tEV+harvLFXQeQ85wiuBDskidxtSFFOsolTa90OmcZ4Sr33O8n2mz7KmVqxYu4yr42bxa30iOKwSmr5AjiJSI49eRMpjox0+vOGeuSxyTXvalQ1EsPfkKNbkWHnil0PvdJPgpFxUAKq/4NdyrWotObiWX46GfV47zR/u/OPNfJCRCKTrCnE+UcReNq9NL+ldnm7ACQXbMq/TK2Z8/l9sX3vM3yafo+5a8WhbYEoU+MuMoX931DjG3WAxx5yNVZhlC0k5vcZd6XfDRBk6vsa1tn/aikhKJ88nTmZDZB/1Q1UY3pdwi1oXnr7vmvEb3r5Xt157924mnD7fcmM5nu/c7E474EeisUXwYUnLpGicXe1e+ciGy04xtqtDbMeaxo4oXcgRCK3MSXpQeheBIJd4Nps4PYJl9O5tD8blF+0jLY9BExD8Iwm9NcnUvO+pB85PIry9PkPldn2RdWnHUrxw8k3GWewyeT5TsvLm52hYRi7juKHZrJ9GI5inhhnl8sx7pyZJEeSaWRRlrCXVvUyNbo+19nSb9uIr4LRe1f58zL1PuL3ZffGwn3PaKE+HDbl/Qpfq8hFJ3nD2dF53sDwcmCMr4tQtGXDpzzm8mwAdQhJWFIyzyKwzROrjLGJXq0b7M6fvo8n9dczLjKwCzWEIqzCOUf970fkG/9+FHOskApz7oHch89VQJRzWTaHffC8V734jeI6MCTojHC5WVeTRGKOnvpkyXxiZfE8LEv6qBmrCEUnecTpziaVcm5htEmFpwNmO/56rpclU1fC8R5F4dpblxlDO9qpakX24ZQLMapylkcooor/7T/bfhxRPvC2c5SmrPqwYmPnnZOO089ZmpmJlPtuoF1OBTRod3yb4+ByPijaIxQpMmNDj0tooO7hZCTA8lvnvDDqpMihGIdekaubZM4qguEs8GcVeHX9YWzAePozNTl0YTrOe/FJvBI22j7fqG0OO8ZSo/DJ0rH9sJVb/rCi7OccNSt+HGk3h3CyW/WPRAckZ/HiKU/0d6HhM2ZTOshk/ZJ0RIdfPpl4VI3NjfXN0EoRoefFbEU4/FoMAFSQwQjhOKEvOMN4u6c2nzcsi45rg4P2Tmrwq/rS9s6M3V5+Hw99z3oM4s822zXHZz3DPlpuw7IY2nyGFe96QsvznLSNqHoSx42sfxrm/PqweDIx2+PRX+lECdelDOZnqmv8WYdHdmXCMSJwsUbMwsZ4rNQjI/tV2I8XjpSwBfPBSOEYoE8tHsKZ6NHnvj82AnnL4O2OwCc+WrbF7t3gLvYOfPInZfmUs7rIJlIhVuw+1wXluEJoViGVrlzbdet3HWQbX/K0TVzNlf519bm1YPB8c//XNyV30Qc7n9Cn+/FOj72Qgnh4oXJM43wUSjGJw6qx3nj4y/OtH/5CZ4Kxu6CWPUbcvS5219uMkLYCLRJIFWF1rYGk9OfNjb+VctRkesob+Z19tIifKadk9dBmnZNmXAIxTK0Tp7L1VH2ZTSqTXUrpy9UYtrYVvhUb/w/AAAA//8Ql0FsAAAyxklEQVTtnXuwHcV953vmPC4SegDiZUAS74d5GGMDBqS1sQt7QwrbiR1Tayqu8pazcW1Sdq1UFbP5c/9wLVRB1VayVZuN4022lo0h6yVL7LDYXidEEobgBzYgHpKM3gIhHhJC4t4zj+1fH7Xu3KNz5szM6f51z5xvV90758yj+/f7dE9Pf08/JojjOI23Py6in/+5SGffEa5DOntIJAd3i/ToW65NMZZ+cNJyMXPzetG5+gui99xDItr6mLG4q0aU9o6IVHJO3t1fNYrMdUHms7uPweLTxcwt60X3+t93ZwRSPk7g3QfuEPGOTce/2/zQWn2LOPmuv7OZRKW4ox0bxZEHPl3p2ioXzaz9IzGz9u4qlxa6htOfxXc9Itqr1xSya9pPmt3wH8XshnunHUMl/5f98ZuVrit6EWc9SDbZ9qeo35Oex8XNl2cHZ91q+znBXR818VnBWR7oXs1jGCRJkgZBINLeURE9/5DoPf+/Jr2/K11P6SuBaES4VDLBykXdj3xNipd1IphZdjz+5I0tSjDGu588vo/tQxJJzrtEcmiPhSTdCUZi3JViPOgssuAXoqxCgPth4WMDiauxo/Mnr7LX50yy5Xx42fZlEg4+Xctdxnzy3YQttusNzvzxRfSYyBcubr4w46xbIRRNlFC7cXCWB/Ik73kbpDJk3U0Pv9rv9dr2w+xue5+PC5e99tJwEHPnA3fJXsR1Ijz1gpGpx3t+KoX5QyJ5/YWR55g8kBySPbVSJKZJbDLagbh4xWL32i+JruxFDJevHLADX10T4BaKth9+ZXlyV/RkX15lX9b+Yedz+mTbl2H+1WkfZ17UiUtZW20LxUPfPK2sSZXP90X0VHYgcyGEYgaG4Y+2n5Xcz/4mPiu46/e8MqGEouxVFGEYLiiKyYEX+71ee55esN/kF+pBJPEirAoXkxaPj6t9yafUMNPWuR8ef/KxM6Jf/0ixTt/ZV/iaMiemh19TvYhp9F6ZyyY8165gbF96u+qpbb3vugntxOU2CXA2ksgP242+Mqy4GjraJo5GIufDq4kPf51Xk265G2KT2uvz9bbrDM46kKMO4MpLrvrTF2acdWueKDCRv9z1k+172ASTsnFwlgeyLa9MKKFInYo0/HRYiHc/pURM8sbLww5X2pdI4ULz43iFSyVTC19EwpB6ENuX/MvC1wye2Nv8XRHJOYw0f9BESI++2ReITueeDi9XVf1rnXdDn/PFn6waBa5jJMDZSCK38io7RrdVUty+czR4OB9eEIrDSyx3I2y4Fc3Za7uccdYDHHUAV85DKNojbfs5yZV3mhCEoiZRfZtXJo7PURwXfbT1B2qYJPVOVQ3pESlcaPijU+FS1frh19HQUhKINNTUREjnDiux2Hvh4crREV/F+cgbleMwf+FkgjE89ULVg9i55ovmTUOM1gi4aNTmVXjWHB2ImPtBScnbbvBSGhCKRMFdcHE/ufOWJ2Wb9w3n/UK0fKj7TOUaVx3qi7jmLCu2ywlX3umyBqGoSVTf5pWJE+Yojkum9/zfqB5GUWIYoxIuNDeuSSuZziyVi6esEzM3fX0cskrHabEZ6l2MXvlx4euph1atZCrnmfobygnGQHKmFWO7N33NX5dg2UgCnA+/rBEuHxxN9pnTN5sN+GxZqctniEQ7OWWznHHeL0Qnr7Fnh569WLnEBoSi+TzkyjttucvnvbbBxpZzNEJe3RHQ6zEG5yeOc5heYaFe8/Di/8k9NY2OHhMuJl7BkJsU68HujX/YX8n0pFOsp5vs36x6cuO9PxudVhqrFWNpNdN6hGJikZNzPbjV00rOyk4Tyqv09Dm2ti785WrscDZ8bTbgbeW9rXghEm2RtdsTz3m/ECGX9Z7pHOISG1x15zg+nGXFdjnhyjvNFEJRk6i+zbsPCg89HZZ8cnBnv9dLvodxQVArmdJCNTZewbAgJdYvnav/lRKI4WkXsaZLicW7nujPFX1z24K0k0N7RXpI9tbGvQX76/FluGDsXH2n6kUMV1xcDzdgZS4BV41c2w/DYU5zPyC1DVy+cjZmIBR17grh4seH+dSb/clmOeO8XyiXuOoBjhLBVZfmNZA5/NRpcJYV2+WEK++InS/5p/PR5Jaz3s/jWHro6TAI8WvPKsEYv/qMEoeqZ6tJK5lefJsSLrSQiusQbXm0LxjlKzWIs6mFb9z61ReM7Qs/IYX4etFa+RG35iB14wQ4K7ys8XmVX/a8ST/TQ3524z0i3rFp0qgqXW+zsZs1iLMxw+VT1j8fP7v6ocVHFjZsslnOOO8XYmPTFxvs8+LkEhtcz4g8X+kYZ1lpklAkduhRJAqThbwyoXoUadXTssNPB03q/eoBMfv4N0Vi6RUPg+lxfA9mloj26rWiu/YbonXWNRxJjk0jeuUfxeym+0S8kxqkC16BOfZaX08IuktEeMYVar5n+9Lf9NVM2DUBAZeNXWoIzKz5hryX10zgwehLXfpGVnE2dDgbM01q9I4uPflHXJetfOuGH6XyOCy0V83vj9TzS46UcfTDStY+m+WM834hn/Iae1mf6/AZQtFeLtkuJ1x5pwlBKGoS1bd5ZWLiHsVo62NSuNwvYovvW6zuerUrg/ZJIlh+ngiXnHU8gtbqfyE6V31BhKesPr6P80P82nNi7on7Re+Fvx2SbD0FY9CeEcGylSJcevZxn2gVWeLcWmWnUX88IXxgJ+CqV1E7akMw+tCQt9nQ1ez0lrPhy+mX9s+3ret7ZhQPLQZJ/GXr6qo/xlC5induVMmRiOQUkDbLGef9QvDyGnuj8tLX/Vxig/OHtjzWnGXFdjnhyjvNs4lCkbM8EMe8MlG5RzHe81MxK4VLtOX/6ryq/zZoiZAEovwbFdqX3aGETMCwkA3ZkMoVTEmIz/3sW6NMyuyviWAMQslYCkTFefg8xdb7rhWdK6UwP+vqjH/4WGcCPogq4jepYCQ/KMxuuFdtXf7jbuRwPrxsNuBd5lnRtH25X7S9VNa0MKwqCHVc47ZNKWecfhDTvMbeOOa+HecSG9x16CjOnGXFdjnhyjvNEkJRk6i+zSsTqkcxSZLCQ0+Tt7Yrgdj75f+obpGHV4bLzlHiRYTt8da1ukosUs+XEMOFzvhIxpwhFwQiIU4iUcRzY07OHvZbLIZLibMU4pJhkdA+/2OiTT25Ulgi1J+Abz0k2cavpqsbwfTg1kH3dvggDrVNtOUWU5yNGW7fslxdf/ZFJNL9YXPY9ijOTSlnnH4Qy7zG3ijWvu7nEhsQiuZLAFfeacshFDWJ6tu8ukMJRZqjGAT5gofehUhDH2d/8p+qW+LhlcHJZygREnQWlbaOru1cdadoX/yp0tfmXTD382+LOSkQk3f25p025phfgjE8+XQ1zDTonjzG7uGH25d/pt+TO7Ns+AnYWwsCvjSAawFrjJEuGjicDV8IRXc91q4Eoi7yTSlnnH4Qu7zGnmZbly2X2HBRjw7LA86yYruccD/nm/is4CwPVB7zykQhoTj31J+qnq30vbeHle9a7gsWnap6tgIDwiNccYkaJjnpap29Fx9RYjx+9VcGmboVjMFJy/tC3MRQXTl3lHpxO1f+jkE+iIqbAPdDhNs/rvRcPBw5H14u/OPKu7x0OBkPs8MH7pwMbPrL6QflpS+iZ1i5KrsPQrEsseLn54mC4rGMPpP7GW/zHh7tpd0j3AzzykQQx3E6asXT3rPfUQIxeXOrXSKMsasVNuXQx2DxCuOpts75sBIytIJnmRDv+onkfJ+Ifv3jMpeVPJdXMAadxX2BKHtdTYdALjJE8xfbF3/SdNSIj4mAb0NQmdw2loyrBiFnw7eJD/8iBYC7gaBtclWmdPrZbZPKGWdd51MeZvOzymcIxSrUil2TJwqKxZB/Fuf9S5Y08VnB/RzIYzh01dNo2w+VQIx3P5VfGup0VK6wqRaqWTK/wqYt8+l9gNTzFcj5eHkheWOLEoi95x7KO83wMbuCMWh15IqxtJJpvu8mnApXXKo4t8670UR0iIORAPeDhNE1lqTyKnWbBnDmmysfbfIrEjensND2+CYwmlTOOPPTt3zU5avKFkKxCrVi10AoFuPk8izvhKKeoxjv+7kSiNHLf++Sj9m0F6ywaTbqcbF13v/baiGWoLNwXl569C21UM3cU/95XBSWjtsRi8dXMpWrx3KG1rnXS8F4pwhPv4wzWaQ1IQHuinBCc7253PZDPs/RJjXg8/x0dczFPeGyPI3i3KRyxikUiWdTFvaAUBx1d0y+3/Y9z3n/Eg3b/kxOvHwMXOVfW5ZXb6gexfidfaK34R4x98x/19c0YqtWMl1GK2x2nPlDi7fQqp2dK35b2UCLAc3JYabp3GFnNs0nbEYwhrKXlt47Se+fdBnaF93W78ll6DV26WeT0nbRMK4zP9cPRM4GwDT2KHLfD772QDWpnHE3+Jpy33Bx8+Ue4CzzHM8Rzh9IfMlDk20LTn5kd65QfO+f/0saPfugiF99xqSPTuPqr2QqhYucJ+dNkKvKRtvnl9v3xi5lSDXBSPM8QynEg5mlXrnTvvQ3Rff6r3plE4wZTYC7cTzaEr+P+PAw5GzMNKXBW6ZU+dQ4KGO36XObVM64BI/OAw4RoNOyueXi5kO9Shw5yzxHGeGsy3zJQ5P3g0/8goPfujXthEL09tVfKAZyZU2ah0grbXoXvBaKmlYxwUgrxSrOi07TF3qzTQ7tEcnbO8Wyf3/AG5tgyHgCEIv5jHx5EHI2ZqZNKHKypdLG0VjML9Wjj3KysF3OuOs2n/N1dI6feARC8UQmpvZwlBGu/NNM8nrE9Dl12fpWZwTv/MWtaShfoRjVWCjS8E6aH2djJVNjBasWQlF7O1ww0rsmVQ+iXHXUt5Ae3i+Sg7tEGr0nhJyXCqHoWw6Nt4e7chxvkT9n2G7MFvW0SQ34oj5zncdd/n1uWDWpnHHnK5VXn/O26P3EJTSm8Ue4JgpFX56RRct33nncdca48hC8++2Pp0maiqSOQ09bx1YyXWp/JdO8TC10rFZCUXvUF4xB2FZzEEkk+hZoYaDk4G6Rzh6aNw1CcZ5FzT5xV5B1wOPTA7BJDXjf8p6rYUx+j2sYuGbDWQ/Yvr84fdH5BqGoSYzfQiiOZ1TlDM5nBdln+z6uwqDqNdx1xjh29exRlMJFLVQjh5nK7qOqecF7XS2FolwH6JwPiqDVFUIy9ynQYkBKIB5540SzIBRPZFKjPfSAmd14j4h3bKqR1XZMHVeB20l1dKycD3/ffB9NxcwRzjkpvgsJzoaS7XLGec/okuj7DwHazrwt1w8nEIp5uVD9GHe5b0KZ17Q5nwWU5rjngRKKJLXqsphN98P/Rszcsk4NMYzk+wej7Y9rtn5vayYU6XUTxDlccYmIdz0h6F2PyZvb3DOOZpVATA6/OtoWCMXRbGp0hKuh4CMSXx96nA9/2w143/Kdq3HgS8M4j3+ThCL5yZW3mqmv9Ye2r8iWq/735X7grFu5ygdnufclH4uU7bxzOOs+bUchoViHOYr0TkIlXM54v/ZNbePXnhUkGL0XujURiu0LP6E4t1betIAzfYm2PKoEY3rEwUIxadIXiHIe4tgAoTgWUV1OcFFpumbD9RCv4idnY2aahCInV5/Lly6TnPc9RznjbDBrhuMaf/o8X7cQivZyhqsO4MpDTYrjXtZp2dpy1n3kQxGB7f3Q0/b5HxVd2bPVXr02N19iOVyt97zs9XrrldzznB30XCi2zr5GdG9eLzqX35GPSAo26l2kP5H08s81dDSR7/mkhWpEXDA9CEVD5P2Ihvth49Jrrgd4VR85BU0THvpFOXM2DnwvY8SMkwdHOeP0R5e5OuSztnXYlqveL9JQHmaf6X2cdStX2eDKQ50XHPeyTsvWlvtHpSJlwduhp60zr1ICsXPFZ0vlR/Ty96WIeVDQIideBU+FYrj0HMl5vehe9+VSuIgvicXo5e+Vuq7Myem7B5RATHtHylyGVU/L0fL2bBeNK5cw6vCQ42zM1IGHqfLCWdbrwJWzgcnBgzN/s2Wyzr2KXGUAQjFbYsx+5nxekOW+5GVVii7qiSL1X3BYvh6D1rb0ZdXTYMnZauhj90Nfqcpa9XQd7/WSPWBeBN+EolyghobyzsheRBG2KiOiHlzqyaUeXVMhfe9gXyDKbaWAHsVK2Hy5iCpLCrMb7vXFJKt2FPlFz6oBJSLnfPAXeYCVMN3rUzkbCHXgyvmrOgcPzvzNFvQ61S1Zu+kzhOIgEXPfOcsF571MhDjuZ3M5sTAmF/VEkR+TgsPflkJRKkXnQjHsHBMu6+TPAp2F9Cp+o7l0qtdLzq1zHjwSiiTCSSSSKDcVaI6omisq54xWDdRzqN6FKHsSJwoQihPhc3mxi4rSlb+cD2tTPkIomiK5MB7Ocl+kYbDQOt5vnGWMPONqWHI3mMm3OtYxZDcFCMU+Bxv/OcsFVz5qTlz3s07P5Ja7jihaDuR7FG9NpYYRvb3PmPS3VFw2hEvWAFqtkwQjrd7pLHggFGkYL833pGG9tgKtQkuCMTm4s3gScu4hCUSai2gkQCgawcgdCfcDhds/nV7Rylmf79OWsxFf5wd+2TyDUJwnxsmCUuUqZ67qt7rWN1y8fBmuyFm3cpYJ7vvZl/ycr9GKfeLmRFYVLQfBoW/dmtKrCFPZI8QdOIRL1qd478/7C97sfz67m+ezQ6HYXr1GLlQjFwS64GM8vspUohcfUaxpGGleUALx4G5ZAA0OEYZQzEPu5TGuRoEr56lCpjCz9m5XJhhJl7Mxw9WANwJmwkg4Gwm+9yhysqBs4ypn3H5li6TveZ61VX/meib4Iiw469aiAkHnxSRbTr+0nVz3tE5v0q0LRmRz0XrByWI2tIKpWslUrmjqIkSv/IPs9XpQJIf28CXvQCiGp18mh5jKlUyv/Dyfn9mU5DsPaf4i9eYOBnoPYkICUZ5jPEAoGkdqM0KuBoFNHwbjpsZHe9UtorVqjVyxec3g4dp+53yg1e1hP0mmcooI37lyD7/i4sF57wyWRU5hMJh21e9czwUIxao5VPw6rrzUFvmSp9qecVvO+l/bUqZOkENPPy6HnqYsQ0/DM67oCxf5TkQfQu+Fh9UwyXTusH1zGIVisHiFWqSme8NX7ftVIIX03f1SLD4ooq0/EOmRN5RAtMocQrFArrg/hRpOsxvvkQshbWI1Jtu7RzZQiHduFNHOeTuK2kQPJAokCnWoe6+h9mPYlrOxy9WAH+Yn9z7OhoLPXDk56Dzm5MEtgrWPtC3TMMxe5+ozl7jwRVRw1q3cZYHTN11euX3U6ZbduqjzyMYyfNSqp4lI5dDTX5b1r/j5cnGatvxl/aTbvimol8unQAuo0Jy63ubv2jWLSSjO3Pzv1Osugs5iu/6UjD3e/ZR47x//g2yQ/6TklRVOh1CsAI3/Eu5GU5mKMUtDi0na16TewayPRT9zPvA5G/BF/bd1Hrj2yXLXCZQqZzlz1SjU5bZqHaiv59xCKNqj7aIcNP3erppbLriQrUWHndK5ll+PEYhw+XnqT8jGO4X2RbeJzlVfMLripop4wn+pXEiFhklG2340YUwjLrcsFDvX/q7qRQxPWTXCADe7aSGh2U33i96zf81nAIQiH+uKKXE1Asg8Fw/Fili8vwyCxk4WcXL1pQdlkKQrEcUpFMlnVw1DzZvbX51u2S3XM8KX+4GzDnDxTOTKz2w58yVvszZlP7uq88rmv5qj2KJVT/eZXcwmXHp2XyC2ZrJcjn+meXPtK6Vg7Cw6vs+HD8mBF/srpO552qw5loRi+5LfUK+6aJ3zIbP2ThgbLWIz+8T9Yu7JP5kwpgqXQyhWgMZ3CVflWLYy5CNQ35Q4GzN1adCayE1OrmRvmV+TTfhXJA5XAoq7nnDRYB7kz+3zYPpFvnNx8kVMcNYBLvKf079s+XLhazb9UZ+52kHD0i9b/6v3KFJfnymhSPPjwuUrRdA9eZh9C/YFM0tV72L78s8u2O/DFxoqSYuwJG+8bMYcw0Kxde71SiC2L/6UGfsMxkLikETiuBVPDSa5MCoIxYU8PPrG9bCYJpHBmb1c+Uc+TVsecgol3xpPLhtN3Cxc+pqtK7j9zqZd5DOEYhFK1c5xlfdceTpIxZW/g3bo7y7rgCosgkN/cWtKQpFemD5JCE5arnoQg5NOKR1NuOw80b7qTtbXNxQ1Mtr6mBKMtCDLRMGQUAxPPV8NMe184K6JzLFxMQ0vpWGmNNzUaYBQdIo/L3GOB8W0CYw83qaPQSiaJjofH6dQpFTL/qo8b6nZTy4bTeSJix4l7rwelWMufB9li97PWcdQmr4w4PS7iljQ+TPJltPHQTtd+Txoh+v6rkq9r4aehnLoaVRx6CktmkLzEIOTzxjkUfp7KF8ET/MXW+/7YOlrbV9AvYs0h7Hy6xwmFIpBd4lapGbmpq/bdrV0/NG2HyqBSL2wXgQIRS+yYdAIjoeELw/9Qd+b8p0jDzWraRP8HD+iaLa09aHh5LrRRBxc1Bk++E2+UyD/Z9Z8w4uFulxwcZH/ffIL/3PWrS7vfe56LkvZpd9kh4vybcL/4Mh/+3iapKmIywpFuZIp9QSGy87J2mHkc0suNU+CMTz1QiPxmYqEhlKqBW/ky+RLhwmEYvfGf6t6EYNFp5ZO1uYFVGZmn7hPRC9932Yy5eOGUCzPjOEKjgeELw99BpxOkuBszEAo2s9ilw0n140mTddVneFLr2KWA73mx8XrfagsUJjdcK82h23rKv8HHeSsW13e95x+DjKm7y58J59dvAps0P8qvYkUhxp6KqRQTF8r/nqM/kqmK+XV/ZVMB40x9b196e3yZfFywRs579GnkBzcqV6pEW1/vLhZFYQiieWZW9aLcMUlxdNhODM5tFvMySGmc7/4S4bUKiQBoVgBmv1LOIQieVG1MixCgCp8eudiNmTfv5jdrz9n37FI+1ryVUEU6viqDc6H/LQJRU62qgAe++ei4cRVF2T9zPtss84Yla4vQnmYfVxlwqVA1H5DKGoSfFsf7n/OMu7iB5DB3JzE3+Ddb98qZaKco1igRzFccmwl0/bwlUwHDTPyPWwpsUiiSYRtI1GaiiR+7VklGAvN7ywhFNsXfry/kunKm02Zaiae6D01xJR6EenHBW8DhKJ3WcPZCJ6kQtTgBgUhicF4xyZ92NiWGikUaOgXBd/FI2c+TptQpPx31ctk4p4h+8cFX8WRq7LmKr/H5ZM+nq2fTNVNum71ofFMfkIo6tzm23I+R/K8onqPgo1edPLRh15E7f8kP4apOYrpmB7F/kqmch6inCfnKgSLTpPDUeWCN7KX0bcQ79jQXyH17e2jTSsgFFtnXSPnIa4Tncs/PToeR0fmfvpflUiceFEfDvshFDkol0qD+8FAD/+i8250w4UcsiUIy8DSttM1phpnZdLPO5czH1013vP8t33M9S/tNgSjbw2mYXnoqqz5KpyHMaJ9WeGYPSevnqL8p0AjMXwRh1nbIRSzNPg++1b2TYhGXdcRRRs/LFfNnUnrdTVHMYqToUNPg5ll/YVqPJobR/MW1YI3ciy9byF66XtqDmN69K0TTcsRiuHSc5RA7F73r0+8zvGe3ub/3V/J9PXNji0pkTyEYglYPKdyCoxBj3TjZnC/TxX5oG36uxaNeQ0xfS7HljMfXTXeOTiOSoOT7ygbaL9uNNEw6bJlj3ygQL+mU6jDfTZpQ0o5WvGf772KZd3S9W0d8p18g1Asm8Pmznf9w9goT3T9p48PThfRdRwdpx9A9PQTH8u8ibpNDj3tL2aTZF6PEXQWHVvJ9EzNybstrYyqFryRK6V6FZKe6l2kVVJFmsybNkwoygWBZm5er4aZ+jasNtr+T2JOvguRtrULEIreZZlvvx56B6iAQT6IRk4hA6FYoFAwnaIb/4PzbXUDSZvhY0NJ25a3dSkWUDfm5Yz9Yy7zPusdZ91qQjxkba/6mdPnqjbW/bpJhpxq34PD8j2KNNtMCUU5BzBcvtLKSqY6QdPb9gUfE2254A3Z7VNIjxxQgjHa8mjfrAGh2P3QV5RADOS8T59C8voLsgfxPkE9ibUNEIreZR0eCOayxOVDnjMfp1EoUinx9Vd2cyXYz5hMNKiqegaxWJXc5NdBKE7OcJIYUPYnoZd/ram2glr1lNYuTY8eUL2IImjlp+zp0fbln1E9jDRc1qdAL5+n3sV4909k79xG0bniM6IrexFbZ/nVE5q++7p81YVcyfTpP/MJXzVbIBSrcbN4FafAsOiGN1FT46boHEyTRnPm47QKRU7GJstG3eNyXd6aNgS1LuUBQtF9TuHHMfN5YEokkmXB0e98Lg2WnCXit3eat5Q7xvZJSix2rvwd7pTHphfvfVqks4dF+4Jbx57LeoLsTyaBSL2IQq5q2ogge8aX3b2/Ea40xQk0fu3kJHcjhzMfXTfc7eRYsVjRcCrGyeRZ3PfSoO2c99Zg2tP83XW+a/ac+W9SRGj7J93ih5JJCc5fbzp/g/jtHWlv6w9F/OLfzqdS8080nJPmL7Yvuq3mntg1f+4Xf6XmISYHd9lNiDF2WjG2e/M60Tr7GsZUkVQRAngQFKFU/hzOhg5nY2aahSIn5/IlrrlXuBx+SlQxDI+/bHHWn3necd7zpoVEnl9Fj3H6X9SmOp5nozwH8tUYFESy72f9VzzIOWpNCeHpl6l3MLbOu6EpLhnxI3r5+2ol03jfL4zE50MkrZU3yTmf6wW9gxLBTwIQivbyxcbDYZi1nA/zaRaKxB69isNKoN19PpQ5iEW7eTwYO1fdOZju4HfOutVHoUg8UPYHS0X57zZ+7FJCMWtK9Ov/pwRj+s7e7O5af26de0N/hVQpHKc5xLufUgIx2vbDxmAIV1yiBCL1ICP4TQAPAbv5w9Hg4WzM+NBot5tj+bFzss63ZHqOctxDRWiirixCycw5vuQ55/3uq1CkHEXZr16ubT0zgyiK0lbrxAVsepu/KyK5CEvaO1Ldas+upKGoJCh8W2nUNiZaUIfmIfZ+9de2k2KLP5Dv9pyRQ0y7N/4BW5pIaDICnA/CySyt79W2Gz2ceWjroVen3EWjiT+3fCl36FHmyXvbdWZRLzjrVp+FIvFCvVe01MyfZ7PeCpIkSQP56oZhIZ07rMRi74WHhx2u7b7OlZ9XglG0F9XWhyKGp7OH1CI1c0/+SZHTa3POzE1fF105zDToLqmNzTC0TwDDT+2XBJuNAM7GjM0Hn/1cMJfCtDeaqCHP+X5GX4QDlaBpz3tzd9HomHzJb8661eYzYjTpckdQ9ovzsv2sPD5HcZRYJFOTQ3tE9PxDIvr1j4tb7vmZ9BoNteCNfK1GE8Pck38qexHvE+l7BxvjXucDd6lexPDUCxrj07Q5gsqfJ8dtNQQ4GzO2H348OWEmlWntXaJy3Fq1Rhx54NNmQBaMxdb9UzD5BaehzlyAw/gXCEXjSI1FiLKfj5LKLsdrsnJ7FAdNTF7f3H8n4N6fDR6q7fdw+UrRvlKukHrBx2rrQ9bw3rPfUb2INNy0KaF98afkPES5kum51zfFpan2A5U/T/bbmNQOociTd8NSmTaxmBVrLnzPpj8sPzj3oc60RxtC0R5bEzFzPnNM2MsVB2e5LSUUNYB410/6K6S+uVXvqv02PPMq1cPYet8Ha+lLtO1Hah5ivOvJWto/zOjWOdf1VzK95DeGHca+mhJAxc+TcTYaupx5hx7FE8uJC8F0ohX29wyWXc5yl/XOpzIIsZjNGXOfORvceVZzlvHB+yvPLl+OofzP5wR3/lUSitrcaMuj/RVSjxzQu2q/ba26RQnG8NQLa+FLvO8ZJRCjl75XC3uLGBkuX9VfyfTa3y1yOs6pIQFU+jyZZrpXkbMx41MjnSe3xqfCyX+8NXbOGNUIciWSR9ljx/v8WCn/ZzfewzpnM9+i+h+FUKxPHk57u4HKKsdQ08ESMZFQVJGliRKLPTmHUcS9wfhr+7196e1KMAaLVnjpQ3Jot5jbdL+Y+8VfemlfFaOCzmK5SM06NQ+xyvW4pl4Epr3S58gt041cTqECoTi6hDT13hlXXl2JRdM/uIzO2WJHmpr/2nsqB9HOTSyCGEJRU6/Hlp5B8U75g8mGe+thsCErx9WNhpIZGs3kQvFYtOnRtwSJxSb1bImwrcRiR85hFOGJrxAZStT2zmhWLVIzK0WikCK9KaF7/VdVL2Kw2E9h3hTOvvnR9AaPD7xNNnIhFH3I0b4NTbp3iv5Szln+dE67bKBpG4ZtiUUTexf1D0RcPwpAKA4rXf7va1L9l0e7aN2YF8ekxwqtelomkeTt7f0Fb3ZsKHOZ1+eSeCGxSL2MLsPcT/9cLVSTvrvfpRlG06ZXldBCNeHplxuNF5HVh0BTGzy+5IBueJmwh7OhbtJuE777GkfdG0xlhRhnGfRFROSVvbrnv/ZtsBxAKGoy5reDrM2nwBdjU8r/IDEfBKK2ybhQ1BHHr/5SvYMxfu1XelfttzRvkV6pQfMYOUNv88OqFzHZv5kzWatp0Sqz3ZvXifbqNVbTQeT1IQDBaCevTDYKOBvpEIrFy0MdG0uTlEsuf+tUBokJ13DN4iVz/JlUDijMrL17wckQigtwGP0yyb1n1BCDkXHVCQZNHhqVTwJRG6iEov5iYxtv/yfZw/igSA7utBG9kzhpZVQSjLRSqs0QyV5ZmocYbX/cZjKscbckM5qH2Lnis6zpIrH6EIBgNJtXJntFIBTN5o3p2KixRMHn+TumGqm2G4Z1EonZclSX+nOUQNS+QChqEua3pu5B85ZNHmNdfzDxUSDq3AjiOE6DIBD0ZzNELz3SXyG1QS+Ap14xegcjvYvRZEhef0EOMb1f9DZ/12S0TuMKlpyl5iB2P/QVp3Yg8XoRcNHooQq7PTBqgF76TaFIDzjZTIEm3PvyC7+peYoQiipra/HPtpAqCoHuJwo2Vuuz4aPPDbaizOk8XXfS53jHJtp4EYqKFAhFe9lVNA/sWcATs436waTldalrjC1mUwhePNtfIfW5hwqdXpeT2pd/tr9C6szSiUxO331dvepi7uk/mygery6WiwDN3LxezUMUra5XpsGY+hHQIowWcciGcQ0h3Vila7IisIwAzKZX9rNutI2zs2y8Rc831TAgP0gAc4TBoWgcaTYxDWosUeD80YLuN7rP6P4q8uPKpNxNNQjJ7pPv+rtJzfHuel3/kGHcdRDVPRTK3s/TWNfoe1UBs/iP67606EKpqLNlyeVoC90OsfGjWSkgJU+2PvR0mD20GEtPisVo62PDDtdzX3vRsRVSP1/J/tlN94m5J+4Xae9opet9vKh73ZflMNP1Ilx6jo/mwSYQYCegG2wuGmtlG2rscJAgCwHdaDIpHLMNIHKCQxwOwtJ+lWkIZu12YfOgD1zfNSsqAxRM1kdVhSGX70gHBIiAFuUm68EsWV230L66CcOsH/RZCcUkSUQYhoPHrH9P3tiiBGO8+0nraXElECw5WwnG9kW3FUpy7pm/UvMQk4O7Cp1fh5M6l98hF6pZL1pnX1MHc2EjCLAT4BpWpR0z1aOo48O2WQRIOOgwrMeYGlO6h1CfR1tfxZVuBGpbtf30XY8ioM++2k+2uQi6HOSVgaxdmiU4Zqngc50J6B9Rhvmgf1jJjkrS5+l7gb437X6wtuqphldkG+95Wr6D8W8Ezc1rSghPv0wJxta5Nwx1KXr579WrLuJ9vxh6vI47WytvUkNM2xd+oo7mw2YQYCXAKRbp180mDqljzTAkBgIgAAIgAAJTRoB3juIYuNGvf9Rf8OadfWPOrM/h1nk3qHcwknCkEO/+ZzUPMdr6g/o4McbScMUlch6iXMn06jvHnInDIAACWQKHvnla9qu1zxCK1tAiYhAAARAAARBoLAEncxTH0aTVPiM5hzHtHRl3am2Oty/6pIgPvCR6v/qftbF5nKHBSaf0VzK98Q/GnYrjIAACQwiYWoRjSNQn7DK18ukJEWMHCIAACIAACIBAIwmo12O4mJ84jmY6d1iJxd4LD487tR7H5etHou3z80DqYfRoK2du+rqch7hOBBOu9Do6BRwBgeYTgFBsfh7DQxAAARAAARCoKwGvhp4Og5gc2qMEY/TKj4cdrs++hgjFzjVfVL2I4akX1Ic9LAUBjwlwDT9Fj6LHhQCmgQAIgAAIgICHBLwcejqMU7J/s1zw5iER7/3ZsMP+76u5UGxf/EklEFvnXu8/a1gIAjUiwCUUF9/1SONWY6tRNsNUEAABEAABEKgdAdWjmKapk9djVKEV73pCLXiTvLmtyuXurqmpUGydc51aqKZ96e3u2CHlqSRAq4LW/f1DRTKOSyiiR7FIbuAcEAABEAABEAABTaA2PYraYL2NtjzaXyH1yAG9y+9tzYRiuHyV6N6yTnSv/ZLfXGFdIwlk5+41+R2A9M6mIw98miUPIRRZMCMREAABEAABEGgMgdr1KC4gnyZKLNKQVBH3Fhzy7ktNhGLQWSQF4nrVi+gdQxg0FQSyIlE73NTXO0Ao6hzGFgRAAARAAARAwDcCqkcxSZLaDD0dBjA9+paavxi99L1hh/3YVwOh2L3+q3IeolzJdPHpfjCDFVNHIE84kVhs2lBUGl4b79hkPZ+bKrStg0MCIAACIAACIDDFBJRQpDmKgRQydQ/J29tVD2O8Y4N/rngsFDtXfk72IK4X4RmX+8cNFk0VgSLCqSlDUfNEselMh1A0TRTxgQAIgAAIgEDzCTRKKOrsil99Rr1SI37tWb3L/dZDodg+/6NqmGl79Rr3fGDB1BMoIhI1pCaIxTL+ar+rbpvAq6rvuA4EQAAEQAAEQKAagSCO4zQMw2pXe35VtP1xJRiTgzvdW+qRUGydeaVaqKZzxW+55wILQEASGDYvsQiYOgog6kmc3XgPy5BTzRCvxtAksAUBEAABEAABEChKoLarnhZ1kM6LXnxEzWFM3ztY5jKz53ogFIMlZ6lFarof/j2zviE2EJiAQFWRmE2yLkLIhK9Zv4t+rgufov7gPBAAARAAARAAAfsEGjn0dCi2aFaJxd5zcoVUF8GlUAxaapEaWqhGtGZceI80QWAoAZPz9Hxf7MaVSMT8xKFFDztBAARAAARAAATGEJgeoXgMRPrufrXgTbT1sTFoDB92JBS7131ZdG9eJ8Jl5xp2CNGBwGQETIrErCU+CUbyMd4ph5puuDdrIutn9Cay4kZiIAACIAACINAYAlMx9HRYbiVvvNxfIXX3U8MOm9/HLBQ7l92h5iG2zv6AeV8QIwgYIMCxmIsWjWQu56JN1HsY7dzEOg9xVJZAKI4ig/0gAAIgAAIgAAJ5BIIoitJWq5V3TqOPxXueVoIxOfCiXT+ZhGJr5UfkMNP1on3hJ+z6g9hBYAICLoZhkmikYONdjOQPBV/EoTJG/sOwU00CWxAAARAAARAAgbIEgiRJ0ia8Q7Gs44PnR9t+1F/w5p19g4fMfLcsFMMVF6t3IXauvtOMvYgFBCwRcCESh7mihaM+1l51i2itGv2qGBpCqgMJQgrxjv5W7/dti95E33IE9oAACIAACIBAfQhM3RzFcVnT2/xd9UqNtHdk3KnljlsSisFJp6iFaro3/mE5e3A2CDggYGteogNXvE8SvYneZxEMBAEQAAEQAAGvCaBHcUj2pHOHlVjsvfDwkKMVd1kQit2PfE0NMw1mllY0CpeBAB8BiEQ+1pQSehN5eSM1EAABEAABEGgaAQjFnBxNDu1WgjF65R9yzip4yKBQ7FzzRdWLGJ56YcHEcRoIuCfAsXiNey/9sAC9iX7kA6wAARAAARAAgToTgFAskHvJ/ufV/MV4788LnD3iFANCsX3xJ+U8xHWidd4NIxLBbhDwkwBEIm++LPvjN3kTRGogAAIgAAIgAAKNIwChWCJL411P9FdIfXNbiauOnTqBUGy974P9lUwvvb18urgCBBwT8GXxGscY2JLHkFM21EgIBEAABEAABBpNAEKxQvZGWx5VgjE9cqD41RWEYrh8pXwX4nrRvfZLxdPBmSDgEQHMS+TNjJm1fyRm1t7NmyhSAwEQAAEQAAEQaCQBrHpaNVvTRInF3nMPCZH0xsdSQigGnUWiK4eY0vsQEUCgrgQgEnlzDiKRlzdSAwEQAAEQAIGmE4BQnDCH06NvScH4oIhe/n5+TAWFYvf63++vZLr49Pz4cBQEPCeAeYl8GYTFa/hYIyUQAAEQAAEQmBYCSihOi7M2/UzeeqW/4M2O+ZdyL0hvjFDsvP9z/ZVMz7hiwWX4AgJ1JUA9irMb7/H+pfR15avtRk+iJoEtCIAACIAACICASQJBHMdpIEUM/SFMTiB+9Rn1So34tWcXRjZCKLbP/6ich7hOtFevXXg+voFAQwhgMRt7GQmRaI8tYgYBEAABEACBaSeAxWwslYBo++NKMCYHd/ZTGBCK4Znvl6+6WC867/8tSxYgWhDwhwB6F83nBUSieaaIEQRAAARAAARAYJ4Ahp7Os7DyKXrxkf4KqXOHRLR9owhOPlPNQex++PespIdIQcBnAuhdNJM7EIlmOCIWEAABEAABEACB0QSUUEySRIRhOPosHJmMQDQrxeJ3RHJoj+pFFO2ZyeLD1SBQYwLoXayeeRCI1dnhShAAARAAARAAgXIEsOppOV44GwRAwBABCMZyICESy/HC2SAAAiAAAiAAApMRwBzFyfjhahAAgQkJQDDmA4RAzOeDoyAAAiAAAiAAAnYIYI6iHa6IFQRAoCQBCMaFwCAQF/LANxAAARAAARAAAV4C6vUYmJ/ICx2pgQAIjCYw7YIRAnF02cAREAABEAABEAABPgIYesrHGimBAAiUIDBtghECsUThwKkgAAIgAAIgAALWCWDoqXXESAAEQGBSAk0VjSQOKcysvXtSRLgeBEAABEAABEAABIwSUD2KaZri9RhGsSIyEAABWwTqLhohDm2VDMQLAiAAAiAAAiBgkgB6FE3SRFwgAAKsBLRopETjHZtY0y6TGMRhGVo4FwRAAARAAARAwAcC6FH0IRdgAwiAgBECJBzjnRtFtLMvGl2IRy0KW6vWiPbqNUb8QiQgAAIgAAIgAAIgwE1A9SgmSYKhp9zkkR4IgAALARKPFLICUn2v0APZWn2Likv/a6/qf4co1ESwBQEQAAEQAAEQaAoBJRRpjmIQBE3xCX6AAAiAQCUCWlTSxegNrIQQF4EACIAACIAACDSEAIRiQzISboAACIAACIAACIAACIAACICAKQJBHMdpGIam4kM8IAACIAACIAACIAACIAACIAACNSeAVU9rnoEwHwRAAARAAARAAARAAARAAARME8DQU9NEER8IgAAIgAAIgAAIgAAIgAAI1JwAhGLNMxDmgwAIgAAIgAAIgAAIgAAIgIBpAv8fgpY57AZhfakAAAAASUVORK5CYII=;" vertex="1" parent="1">
          <mxGeometry x="350" y="327.4" width="280.12" height="71.74" as="geometry" />
        </mxCell>
        <mxCell id="VMQC-VAXfnqXc4yJ9Rki-2" value="&lt;font face=&quot;Verdana&quot; style=&quot;font-size: 60px;&quot; color=&quot;#6e6e6e&quot;&gt;X&lt;/font&gt;" style="text;html=1;align=center;verticalAlign=middle;resizable=0;points=[];autosize=1;strokeColor=none;fillColor=none;" vertex="1" parent="1">
          <mxGeometry x="290" y="318.26" width="60" height="90" as="geometry" />
        </mxCell>
        <mxCell id="VMQC-VAXfnqXc4yJ9Rki-4" value="&lt;b&gt;News Event Triggered Article Updating System&lt;/b&gt;" style="shape=cylinder3;whiteSpace=wrap;html=1;boundedLbl=1;backgroundOutline=1;size=15;fillColor=#B3FCFF;" vertex="1" parent="1">
          <mxGeometry y="318.27" width="290" height="90" as="geometry" />
        </mxCell>
      </root>
    </mxGraphModel>
  </diagram>
</mxfile>
